<svg xmlns="http://www.w3.org/2000/svg" viewBox="0 0 128 128"><title>icon-topics-bulb</title><path d="M95.73,34.27a2,2,0,0,0-2.83,0l-5.65,5.66a2,2,0,1,0,2.82,2.82l5.66-5.65A2,2,0,0,0,95.73,34.27ZM67.45,22.56A2,2,0,0,0,64,24v8a2,2,0,1,0,4,0V24a2,2,0,0,0-.57-1.41Zm40,40A2,2,0,0,0,106,62H98a2,2,0,1,0,0,4h8a2,2,0,0,0,1.41-3.41Zm-23-17c-9.36-9.35-25.66-11.11-35.95-.82-6.5,6.5-8.1,13.15-9.06,18.79S38,73.61,34.21,77.4l-8.48,8.49a6,6,0,0,0,0,8.48l.7.71a6,6,0,0,0,8.49,8.49l.71.7a6,6,0,0,0,8.48,0l8.49-8.48c3.79-3.8,8.22-4.23,13.85-5.2S78.74,88,85.24,81.53c10.29-10.29,8.53-26.59-.82-35.95Zm-2.83,2.83c7.89,7.89,9.45,21.66.82,30.3-5.79,5.78-11.16,7-16.62,8-4.91.84-10,1.4-14.52,5l-12.9-12.9c3.57-4.48,4.13-9.61,5-14.52.94-5.46,2.17-10.83,7.95-16.62,8.64-8.63,22.41-7.07,30.3.82Zm-3.78.64a19,19,0,0,0-28.55,6,2,2,0,1,0,3.51,1.88,15.14,15.14,0,0,1,2.66-3.58,15,15,0,0,1,19.88-1.19A2.1,2.1,0,0,0,78.14,52,1.92,1.92,0,0,0,77.81,49.05ZM39.16,34.27a2,2,0,0,0-2.83,2.83L42,42.75a2,2,0,1,0,2.83-2.82ZM90.07,85.18A2,2,0,1,0,87.25,88l5.65,5.66a2,2,0,0,0,2.83-2.83l-5.66-5.66ZM35.63,81.64,48.36,94.37,45.53,97.2,32.8,84.47l2.83-2.83ZM30,87.3,42.7,100l-1.42,1.41a2,2,0,0,1-2.82,0l-9.9-9.9a2,2,0,0,1,0-2.82Zm-.71,10.61,2.83,2.83a2,2,0,0,1-2.83-2.83Z"/></svg>