<svg xmlns="http://www.w3.org/2000/svg" viewBox="0 0 128 128"><title>icon-topics-coffee</title><path d="M66.4,43V30.4a2,2,0,0,0-4,0V43a2,2,0,1,0,4,0Z"/><path d="M79.4,47.4V34.7a2,2,0,0,0-4,0V47.4a2,2,0,1,0,4,0Z"/><path d="M53.4,47.4V34.7a2,2,0,0,0-4,0V47.4a2,2,0,0,0,4,0Z"/><path d="M36.4,97.6a2,2,0,0,0,2,2H89.7a2,2,0,1,0,0-4H78.8a27.86,27.86,0,0,0,9.6-9.7h9.4a9.8,9.8,0,0,0,0-19.6H92.4V59.1a2,2,0,0,0-2-2H38.5a2,2,0,0,0-2,2V71.7a27.85,27.85,0,0,0,13.6,24H38.4A1.86,1.86,0,0,0,36.4,97.6ZM97.8,70.3a5.8,5.8,0,1,1,0,11.6H90.4a27.38,27.38,0,0,0,2-10.3V70.2h5.4ZM40.5,71.7V61.1H88.4V71.7a24,24,0,1,1-47.9,0Z"/></svg>