<svg xmlns="http://www.w3.org/2000/svg" viewBox="0 0 128 128"><title>icon-topics-clock</title><path d="M65,27.94A37.06,37.06,0,1,1,27.94,65,37.08,37.08,0,0,1,65,27.94Zm0,3A33.9,33.9,0,1,0,98.76,65,33.86,33.86,0,0,0,65,31Z"/><path d="M65,34a1.54,1.54,0,0,1,1.37,1.65A1.3,1.3,0,0,1,65,37a1.54,1.54,0,0,1-1.65-1.37A1.77,1.77,0,0,1,65,34ZM45.24,45.24a1.7,1.7,0,0,1-2.2,0,1.56,1.56,0,0,1,2.2-2.2A1.7,1.7,0,0,1,45.24,45.24ZM86.69,86.69a1.56,1.56,0,1,1,0-2.2A1.67,1.67,0,0,1,86.69,86.69Zm-41.45-2.2a1.7,1.7,0,0,1,0,2.2,1.56,1.56,0,1,1,0-2.2ZM86.69,43a1.67,1.67,0,0,1,0,2.2,1.7,1.7,0,0,1-2.2,0,1.56,1.56,0,0,1,2.2-2.2ZM37,65a1.3,1.3,0,0,1-1.37,1.37A1.54,1.54,0,0,1,34,65a1.77,1.77,0,0,1,1.65-1.65A1.54,1.54,0,0,1,37,65Zm58.75,0a1.54,1.54,0,0,1-1.65,1.37A1.29,1.29,0,0,1,92.73,65a1.54,1.54,0,0,1,1.37-1.65A1.78,1.78,0,0,1,95.75,65ZM65,92.73a1.29,1.29,0,0,1,1.37,1.37A1.54,1.54,0,0,1,65,95.75a1.78,1.78,0,0,1-1.65-1.65A1.54,1.54,0,0,1,65,92.73Z"/><path d="M49.08,63.63H60.61a5.4,5.4,0,0,1,3-3v-17a1.37,1.37,0,1,1,2.74,0v17a4.83,4.83,0,0,1,3,4.39A4.33,4.33,0,0,1,65,69.39a4.83,4.83,0,0,1-4.39-3H49.08A1.37,1.37,0,1,1,49.08,63.63ZM65,62.8A2,2,0,0,0,62.8,65,2.17,2.17,0,0,0,65,67.2,2.37,2.37,0,0,0,67.2,65,2.17,2.17,0,0,0,65,62.8Z"/><path d="M34.53,23H95.47a10.57,10.57,0,0,1,8,3.29h0A11.42,11.42,0,0,1,107,34.53V95.47A12.26,12.26,0,0,1,95.47,107H34.53a11.42,11.42,0,0,1-8.24-3.57,10.57,10.57,0,0,1-3.29-8V34.53a11.22,11.22,0,0,1,3.29-8.24h0A11.22,11.22,0,0,1,34.53,23Zm60.94,3H34.53a7.65,7.65,0,0,0-6,2.47h0a7.65,7.65,0,0,0-2.47,6V95.47a7.48,7.48,0,0,0,2.47,5.77,7.69,7.69,0,0,0,6,2.47H95.47a8.44,8.44,0,0,0,8.24-8.24V34.53a7.69,7.69,0,0,0-2.47-6h0A7.48,7.48,0,0,0,95.47,26Z"/></svg>