<svg id="icon-close" data-name="Layer 1" xmlns="http://www.w3.org/2000/svg" viewBox="0 0 128 128"><title>icon-close</title><path d="M101.25,98.35,67.81,65l33.36-33.36a3.12,3.12,0,0,0,0-4.19,3,3,0,0,0-2.22-.9,2.75,2.75,0,0,0-2,.9L63.5,60.79,29.15,26.35a3.08,3.08,0,0,0-2.22-.9,2.75,2.75,0,0,0-2,.9,3,3,0,0,0-.9,2.22,2.75,2.75,0,0,0,.9,2L59.29,65,24.85,99.45a3,3,0,0,0-.9,2.22,2.75,2.75,0,0,0,.9,2,3.16,3.16,0,0,0,4.31,0L63.6,69.21l33.35,33.35a3.16,3.16,0,0,0,4.31,0,3,3,0,0,0,.9-2.22A2.75,2.75,0,0,0,101.25,98.35Z"/></svg>