<svg xmlns="http://www.w3.org/2000/svg" viewBox="0 0 128 128"><title>icon-topics-rocket</title><path d="M63.2,39.93a5.57,5.57,0,1,0,5.57,5.57A5.58,5.58,0,0,0,63.2,39.93Zm0,8.14a2.57,2.57,0,1,1,2.57-2.57A2.58,2.58,0,0,1,63.2,48.07Z"/><path d="M93.71,96.15a13.16,13.16,0,0,0,.13-1.87A13.55,13.55,0,0,0,80.31,80.75h-.23a10.43,10.43,0,0,0-4.79-4.28,4.38,4.38,0,0,1-2.73-4V72l.62-.35,10.56,5.14a1.47,1.47,0,0,0,.65.15,1.52,1.52,0,0,0,.8-.23,1.48,1.48,0,0,0,.7-1.27c0-13.27-7.24-18-10-19.29-.14-9.68-2.42-22.64-11.6-33.47a1.56,1.56,0,0,0-2.29,0C52.8,33.55,50.53,46.52,50.38,56.2c-2.79,1.34-10,6.06-10,19.28A1.51,1.51,0,0,0,41.9,77a1.55,1.55,0,0,0,.66-.15L53.09,71.7c.42.23.84.45,1.27.65v.74A4.32,4.32,0,0,1,51.72,77a10.44,10.44,0,0,0-5.8,6.35,13.5,13.5,0,0,0-11.76,13.4v.16a10.46,10.46,0,0,0-5.88,9.39,1.5,1.5,0,0,0,3,0,7.47,7.47,0,0,1,4.94-7,1.5,1.5,0,0,0,1-1.55c0-.33-.05-.66-.05-1a10.52,10.52,0,0,1,10-10.51,1.49,1.49,0,0,0,1.39-1.18,7.46,7.46,0,0,1,4.35-5.31,7.32,7.32,0,0,0,4.42-6.28,20.4,20.4,0,0,0,5.8.84,20.8,20.8,0,0,0,6.49-1,7.46,7.46,0,0,0,4.46,5.94,7.47,7.47,0,0,1,3.75,3.72,1.5,1.5,0,0,0,1.5.87c.33,0,.65,0,1,0A10.54,10.54,0,0,1,90.84,94.28,10.41,10.41,0,0,1,90.47,97a1.5,1.5,0,0,0,.23,1.25,1.48,1.48,0,0,0,1.11.63,7.48,7.48,0,0,1,6.91,7.43,1.5,1.5,0,0,0,3,0A10.51,10.51,0,0,0,93.71,96.15ZM82.8,73l-8-3.89a62.93,62.93,0,0,0,1-9.55C78.26,61.16,82.14,64.9,82.8,73ZM50.41,59.62a63.92,63.92,0,0,0,1,9.55L43.5,73C44.15,64.93,48,61.19,50.41,59.62Zm4.07,9.43c-.77-3.94-4.38-26.17,8.65-43,13,16.81,9.43,39,8.65,43A17.86,17.86,0,0,1,54.48,69.05Z"/><path d="M52.36,92.32A7.62,7.62,0,0,0,45,98a1.5,1.5,0,0,0,1.06,1.84,1.74,1.74,0,0,0,.39,0,1.5,1.5,0,0,0,1.45-1.11A4.62,4.62,0,0,1,56,97.06a1.5,1.5,0,0,0,2.35-1.87A7.58,7.58,0,0,0,52.36,92.32Z"/><path d="M72.93,87.35a6,6,0,0,0-7,2,1.5,1.5,0,0,0,2.41,1.79,3,3,0,0,1,5.27.92A1.5,1.5,0,0,0,75,93.11a1.59,1.59,0,0,0,.43-.06,1.49,1.49,0,0,0,1-1.87A5.94,5.94,0,0,0,72.93,87.35Z"/></svg>