<svg xmlns="http://www.w3.org/2000/svg" viewBox="0 0 128 128"><defs><style>.a{fill:#fff;fill-rule:evenodd;}</style></defs><title>icon-github-head</title><path class="a" d="M48.05,113.56s-.08-2.85,0-6.83.77-8.79,4.24-12.11C38.11,93,23.17,87.34,23.17,62.19a25.75,25.75,0,0,1,6.58-17.61c-.65-1.66-2.85-8.33.63-17.36,0,0,5.38-1.77,17.6,6.72a59.2,59.2,0,0,1,32.05,0c12.21-8.49,17.58-6.72,17.58-6.72,3.49,9,1.29,15.7.64,17.36a25.7,25.7,0,0,1,6.57,17.61c0,25.21-15,30.76-29.22,32.38,2.3,2,4.35,6,4.35,12.15,0,2.46,0,4.78,0,6.9Z"/></svg>