<svg viewBox="0 0 176 41" xmlns="http://www.w3.org/2000/svg" xmlns:xlink="http://www.w3.org/1999/xlink"> <defs> <path d="M17.9 19.42H.4V.25H17.9v19.17z"></path> <path d="M0 .07v40.05h32.78V.07H0z"></path> </defs> <g fill="none" fill-rule="evenodd"> <path fill="#1D3553" d="M56.53 21.8v7.78H48.6V21.8H45.2v18.74h3.37v-7.78h7.93v7.78h3.37V21.8"></path> <g transform="translate(63.14 21.337)"> <mask fill="#fff"> <use xlink:href="#a"></use> </mask> <path d="M.42 9.84C.42 8.3.6 6.96.95 5.8c.36-1.16.82-2.1 1.38-2.77.56-.7 1.24-1.25 2.03-1.7.8-.42 1.57-.7 2.33-.86C7.44.33 8.25.25 9.13.25c.88 0 1.7.08 2.45.22.75.15 1.52.44 2.32.87.8.44 1.47 1 2.04 1.7.57.67 1.04 1.6 1.4 2.76.35 1.16.53 2.5.53 4.04 0 1.52-.2 2.86-.55 4.03-.35 1.18-.82 2.1-1.4 2.78-.56.7-1.24 1.24-2.03 1.68-.8.43-1.57.72-2.33.87-.77.15-1.58.22-2.46.22-.88 0-1.7-.07-2.45-.22-.77-.15-1.54-.44-2.34-.87-.8-.44-1.47-1-2.03-1.68-.56-.68-1.02-1.6-1.38-2.78C.6 12.7.42 11.37.42 9.84M3.8 9.8c0 1.4.13 2.58.4 3.5.28.92.7 1.6 1.24 2.03.54.43 1.1.73 1.67.88.58.17 1.25.24 2.04.24.64 0 1.2-.04 1.66-.12.46-.08.94-.26 1.43-.52.5-.27.9-.65 1.2-1.13.32-.48.58-1.13.78-1.95.22-.82.32-1.8.32-2.9 0-1.4-.14-2.55-.42-3.47-.28-.92-.7-1.6-1.24-2.03-.56-.44-1.1-.73-1.67-.87-.58-.15-1.26-.22-2.06-.22-.62 0-1.16.04-1.63.12-.46.08-.94.26-1.43.54-.5.26-.9.63-1.2 1.1-.3.46-.57 1.1-.78 1.9-.2.82-.3 1.8-.3 2.9" fill="#1D3553" mask="url(#b)"></path> </g> <path fill="#1D3553" d="M99.28 21.8l-5.4 7.84-5.42-7.83h-3.74v18.74h3.37V26.7l5.77 8.27 5.78-8.28v13.84H103V21.8M108 21.8v18.74h12.45V37.5h-9.08v-4.74h7.87v-3.18h-7.87v-4.74h9.08V21.8M125.2 40.54V21.8h6.44c2.9 0 5.1.8 6.6 2.4 1.5 1.6 2.24 3.92 2.24 7 0 3.04-.75 5.36-2.24 6.95-1.5 1.6-3.7 2.4-6.6 2.4h-6.45zm3.36-3.03h3.08c1.94 0 3.34-.5 4.2-1.47.85-1 1.27-2.6 1.27-4.84 0-2.27-.4-3.9-1.27-4.88-.85-1-2.25-1.48-4.2-1.48h-3.07V37.5zM148.84 21.8l-7.43 18.74h3.62l1.7-4.53h7.93l1.7 4.54h3.62l-7.43-18.73h-3.7zm1.85 3.83l2.77 7.35h-5.6l2.82-7.35zM171.75 21.8l-4.93 7.62-4.96-7.6h-4.06l7.33 10.68v8.04h3.37V32.5l7.3-10.7"></path> <g transform="translate(0 .423)"> <mask fill="#fff"> <use xlink:href="#c"></use> </mask> <path d="M13.98 23.8c0-1.34 1.08-2.42 2.4-2.42h16.3l.1-.1v-5.8c0-.7-.3-1.3-.78-1.75L18.04.73c-.44-.4-1-.66-1.64-.66-.64 0-1.2.25-1.64.65l-14 13H.8C.3 14.18 0 14.8 0 15.5v22.2c0 1.34 1.08 2.42 2.4 2.42H14V23.8z" fill="#1D3553" mask="url(#d)"></path> </g> <path d="M16.4 21.8c-1.34 0-2.42 1.08-2.42 2.4v16.34l18.7-18.73H16.4z" fill="#5EC4E3"></path> </g> </svg>